<?xml version="1.0" encoding="utf-8"?>
<!-- Generator: Adobe Illustrator 21.0.0, SVG Export Plug-In . SVG Version: 6.00 Build 0)  -->
<svg version="1.1"
	 id="svg1936" inkscape:version="0.91 r13725" sodipodi:docname="amazon.svg" xmlns:cc="http://creativecommons.org/ns#" xmlns:dc="http://purl.org/dc/elements/1.1/" xmlns:inkscape="http://www.inkscape.org/namespaces/inkscape" xmlns:rdf="http://www.w3.org/1999/02/22-rdf-syntax-ns#" xmlns:sodipodi="http://sodipodi.sourceforge.net/DTD/sodipodi-0.dtd" xmlns:svg="http://www.w3.org/2000/svg"
	 xmlns="http://www.w3.org/2000/svg" xmlns:xlink="http://www.w3.org/1999/xlink" x="0px" y="0px" viewBox="0 0 641.7 195.7"
	 style="enable-background:new 0 0 641.7 195.7;" xml:space="preserve">
<style type="text/css">
	.st0{fill:#FF9900;}
	.st1{fill:#221F1F;}
</style>
<sodipodi:namedview  bordercolor="#666666" borderopacity="1" gridtolerance="10" guidetolerance="10" id="namedview19" inkscape:current-layer="svg1936" inkscape:cx="276.36943" inkscape:cy="60.382118" inkscape:pageopacity="0" inkscape:pageshadow="2" inkscape:window-height="1155" inkscape:window-maximized="1" inkscape:window-width="1864" inkscape:window-x="56" inkscape:window-y="1" inkscape:zoom="0.72245926" objecttolerance="10" pagecolor="#ffffff" showgrid="false">
	</sodipodi:namedview>
<g id="g3371" transform="translate(0.16165565,0)">
	<path id="path8" inkscape:connector-curvature="0" class="st0" d="M393.2,147.6c-35,25.8-85.7,39.6-129.4,39.6
		c-61.2,0-116.4-22.7-158.1-60.3c-3.3-3-0.3-7,3.6-4.7c45,26.2,100.7,41.9,158.2,41.9c38.8,0,81.4-8,120.6-24.7
		C394,136.9,399,143.3,393.2,147.6"/>
	<path id="path10" inkscape:connector-curvature="0" class="st0" d="M407.7,131c-4.5-5.7-29.6-2.7-40.8-1.4c-3.4,0.4-4-2.6-0.9-4.7
		c20-14.1,52.8-10,56.7-5.3c3.8,4.7-1,37.6-19.8,53.4c-2.9,2.4-5.6,1.1-4.4-2.1C402.8,160.4,412.2,136.7,407.7,131"/>
	<path id="path12" inkscape:connector-curvature="0" class="st1" d="M367.7,25.5V11.8c0-2.1,1.6-3.5,3.5-3.5h61.3
		c2,0,3.5,1.4,3.5,3.5v11.7c0,2-1.7,4.5-4.6,8.6l-31.7,45.3c11.8-0.3,24.3,1.5,34.9,7.5c2.4,1.4,3.1,3.4,3.3,5.3v14.6
		c0,2-2.2,4.3-4.5,3.1c-18.8-9.9-43.9-11-64.7,0.1c-2.1,1.2-4.4-1.2-4.4-3.1V91.1c0-2.2,0-6,2.3-9.4L403.2,29h-32
		C369.2,29,367.7,27.6,367.7,25.5"/>
	<path id="path16" inkscape:connector-curvature="0" class="st1" d="M488.7,6.6c27.7,0,42.6,23.8,42.6,54
		c0,29.2-16.5,52.3-42.6,52.3c-27.2,0-41.9-23.8-41.9-53.4C446.7,29.8,461.7,6.6,488.7,6.6 M488.8,26.1c-13.7,0-14.6,18.7-14.6,30.4
		c0,11.7-0.2,36.7,14.4,36.7c14.4,0,15.1-20.1,15.1-32.4c0-8.1-0.3-17.7-2.8-25.4C498.9,28.7,494.8,26.1,488.8,26.1"/>
	<path id="path18" inkscape:connector-curvature="0" class="st1" d="M567.2,110.9h-18.6c-1.9-0.1-3.4-1.6-3.4-3.5l0-95.7
		c0.2-1.8,1.7-3.1,3.6-3.1h17.3c1.6,0.1,3,1.2,3.3,2.7v14.6h0.3c5.2-13.1,12.5-19.3,25.4-19.3c8.4,0,16.5,3,21.8,11.3
		c4.9,7.7,4.9,20.5,4.9,29.8v60.2c-0.2,1.7-1.8,3-3.6,3h-18.7c-1.7-0.1-3.1-1.4-3.3-3v-52c0-10.5,1.2-25.8-11.7-25.8
		c-4.5,0-8.7,3-10.8,7.7c-2.6,5.8-3,11.7-3,18.1v51.5C570.8,109.4,569.2,110.9,567.2,110.9"/>
	<path id="path28" inkscape:connector-curvature="0" class="st1" d="M318.8,65.2c0,7.3,0.2,13.3-3.5,19.8c-3,5.2-7.7,8.5-12.9,8.5
		c-7.2,0-11.4-5.5-11.4-13.5c0-15.9,14.2-18.8,27.7-18.8L318.8,65.2 M337.6,110.6c-1.2,1.1-3,1.2-4.4,0.4
		c-6.2-5.1-7.3-7.5-10.7-12.4c-10.2,10.4-17.5,13.6-30.7,13.6c-15.7,0-27.9-9.7-27.9-29c0-15.1,8.2-25.4,19.9-30.5
		c10.1-4.5,24.3-5.2,35.1-6.5v-2.4c0-4.4,0.3-9.7-2.3-13.5c-2.3-3.4-6.6-4.9-10.5-4.9c-7.1,0-13.4,3.6-15,11.2
		c-0.3,1.7-1.5,3.3-3.3,3.4l-18.1-1.9c-1.5-0.3-3.2-1.6-2.8-3.9c4.1-21.9,24-28.5,41.7-28.5c9.1,0,20.9,2.4,28.1,9.3
		c9.1,8.5,8.2,19.8,8.2,32.1v29c0,8.7,3.6,12.6,7,17.3c1.2,1.7,1.4,3.7-0.1,5C348.1,101.5,341.4,107.4,337.6,110.6L337.6,110.6"/>
	<path id="path30" inkscape:connector-curvature="0" class="st1" d="M74.5,65.2c0,7.3,0.2,13.3-3.5,19.8c-3,5.2-7.7,8.5-12.9,8.5
		c-7.2,0-11.3-5.5-11.3-13.5c0-15.9,14.2-18.8,27.7-18.8V65.2 M93.3,110.6c-1.2,1.1-3,1.2-4.4,0.4c-6.2-5.1-7.3-7.5-10.7-12.4
		c-10.2,10.4-17.5,13.6-30.7,13.6c-15.7,0-27.9-9.7-27.9-29c0-15.1,8.2-25.4,19.9-30.5c10.1-4.5,24.3-5.2,35.1-6.5v-2.4
		c0-4.4,0.3-9.7-2.3-13.5c-2.3-3.4-6.6-4.9-10.5-4.9c-7.1,0-13.4,3.6-15,11.2c-0.3,1.7-1.5,3.3-3.2,3.4l-18.1-1.9
		c-1.5-0.3-3.2-1.6-2.8-3.9c4.2-21.9,24-28.5,41.7-28.5c9.1,0,20.9,2.4,28.1,9.3c9.1,8.5,8.2,19.8,8.2,32.1v29
		c0,8.7,3.6,12.6,7,17.3c1.2,1.7,1.5,3.7-0.1,5C103.8,101.5,97,107.4,93.3,110.6L93.3,110.6"/>
</g>
</svg>
